<svg xmlns="http://www.w3.org/2000/svg" viewBox="0 0 110.96 31.36"><defs><style>.cls-1,.cls-2{fill:#fff;}.cls-1{stroke:#1c1c1a;}.cls-1,.cls-2,.cls-3{stroke-miterlimit:10;}.cls-2,.cls-3{stroke:#000;}</style></defs><g id="Capa_2" data-name="Capa 2"><g id="Capa_1-2" data-name="Capa 1"><path class="cls-1" d="M29.74,15.16A14.62,14.62,0,1,0,12.84,29.6V19.38H9.12V15.16h3.72V11.94c0-3.67,2.18-5.69,5.52-5.69a22.85,22.85,0,0,1,3.27.28v3.6H19.79a2.11,2.11,0,0,0-2.38,2.29v2.74h4.05l-.65,4.22h-3.4V29.6A14.62,14.62,0,0,0,29.74,15.16Z"/><path d="M20.81,19.38l.65-4.22H17.41V12.42a2.11,2.11,0,0,1,2.38-2.29h1.84V6.53a22.85,22.85,0,0,0-3.27-.28c-3.34,0-5.52,2-5.52,5.69v3.22H9.12v4.22h3.72V29.6a14.22,14.22,0,0,0,2.28.18,14.44,14.44,0,0,0,2.29-.18V19.38Z"/><circle class="cls-2" cx="55.62" cy="15.12" r="14.62"/><path d="M63.69,10.11a6.33,6.33,0,0,1-1.61.46c.26,0,.64-.51.8-.7a3,3,0,0,0,.53-1s0-.06,0-.08a.07.07,0,0,0-.09,0,8.66,8.66,0,0,1-1.91.73.12.12,0,0,1-.13,0c-.06-.06-.11-.12-.17-.17a3.28,3.28,0,0,0-.93-.57,3.1,3.1,0,0,0-1.42-.22,3.28,3.28,0,0,0-1.34.38,3.44,3.44,0,0,0-1.09.88,3.39,3.39,0,0,0-.65,1.3,3.76,3.76,0,0,0,0,1.38c0,.07,0,.08-.06.07A10.22,10.22,0,0,1,49,9.22c-.08-.09-.12-.09-.18,0a3.31,3.31,0,0,0,.57,3.93,4.64,4.64,0,0,0,.4.36,3.34,3.34,0,0,1-1.27-.36c-.08-.05-.11,0-.12.07a1.67,1.67,0,0,0,0,.38,3.36,3.36,0,0,0,2.08,2.68,1.57,1.57,0,0,0,.42.13,3.59,3.59,0,0,1-1.25,0c-.09,0-.12,0-.09.11a3.5,3.5,0,0,0,2.62,2.19c.11,0,.23,0,.35,0l0,0c-.29.45-1.31.78-1.78,1a6.4,6.4,0,0,1-2.71.34c-.15,0-.18,0-.22,0s0,.06,0,.1l.57.34a9.11,9.11,0,0,0,1.81.72,9.63,9.63,0,0,0,9.36-2.19,9.84,9.84,0,0,0,2.6-7.17c0-.1.12-.16.19-.22a6.41,6.41,0,0,0,1.28-1.32.4.4,0,0,0,.08-.25v0S63.76,10.08,63.69,10.11Z"/><circle class="cls-2" cx="95.83" cy="16.24" r="14.62"/><path class="cls-3" d="M100.37,10.71a1,1,0,1,0,1,1A1,1,0,0,0,100.37,10.71Z"/><path class="cls-3" d="M95.9,12a4.22,4.22,0,1,0,4.23,4.22A4.23,4.23,0,0,0,95.9,12Zm0,6.92a2.7,2.7,0,1,1,2.71-2.7A2.7,2.7,0,0,1,95.9,18.92Z"/><path class="cls-3" d="M99.26,24.79H92.41a5.16,5.16,0,0,1-5.15-5.15V12.8a5.16,5.16,0,0,1,5.15-5.15h6.85a5.16,5.16,0,0,1,5.15,5.15v6.84A5.16,5.16,0,0,1,99.26,24.79ZM92.41,9.26a3.54,3.54,0,0,0-3.53,3.54v6.84a3.54,3.54,0,0,0,3.53,3.54h6.85a3.54,3.54,0,0,0,3.53-3.54V12.8a3.54,3.54,0,0,0-3.53-3.54Z"/></g></g></svg>