<svg xmlns="http://www.w3.org/2000/svg" viewBox="0 0 110.95 31.36"><defs><style>.cls-1,.cls-2{fill:#fff;}.cls-1{stroke:#1c1c1a;}.cls-1,.cls-2,.cls-3{stroke-miterlimit:10;}.cls-2,.cls-3{stroke:#000;}</style></defs><g id="Capa_2" data-name="Capa 2"><g id="Capa_1-2" data-name="Capa 1"><path class="cls-1" d="M29.74,15.16A14.62,14.62,0,1,0,12.84,29.6V19.38H9.12V15.16h3.72V11.94c0-3.67,2.18-5.69,5.52-5.69a22.31,22.31,0,0,1,3.27.28v3.6H19.79a2.11,2.11,0,0,0-2.37,1.81,1.93,1.93,0,0,0,0,.48v2.74h4.05l-.65,4.22h-3.4V29.6A14.63,14.63,0,0,0,29.74,15.16Z"/><path d="M21.43,19.31l.71-4H17.71V12.59A2.1,2.1,0,0,1,19.6,10.3a2.57,2.57,0,0,1,.48,0h1.63V6.71a25.09,25.09,0,0,0-3.35-.28c-3.42,0-5.65,2-5.65,5.69v3.19h-4v4h4V29a18.94,18.94,0,0,0,2.49.17A19.13,19.13,0,0,0,17.71,29V19.31Z"/><circle class="cls-2" cx="55.62" cy="15.12" r="14.62"/><path d="M63.69,10.11a6.45,6.45,0,0,1-1.61.46c.26,0,.64-.51.8-.7a6.06,6.06,0,0,1,.83-1V8.79c-.33,0-.36,0-.39,0a8.85,8.85,0,0,1-1.91.73.11.11,0,0,1-.13,0c-.06-.06-.11-.12-.17-.17a3.42,3.42,0,0,0-.93-.57,3.14,3.14,0,0,0-1.42-.22,3.28,3.28,0,0,0-1.34.38,3.58,3.58,0,0,0-1.09.88,3.32,3.32,0,0,0-.65,1.3,3.56,3.56,0,0,0,0,1.38c0,.07,0,.08-.06.07A10.21,10.21,0,0,1,49,9.22c-.08-.09-.12-.09-.18,0a3.32,3.32,0,0,0,.57,3.93,4.48,4.48,0,0,0,.4.36,3.36,3.36,0,0,1-1.27-.36c-.08-.05-.11,0-.12.07a2.41,2.41,0,0,0,0,.38,3.36,3.36,0,0,0,2.08,2.68,1.47,1.47,0,0,0,.42.13,3.75,3.75,0,0,1-1.25,0c-.09,0-.12,0-.09.11a6.5,6.5,0,0,0,2.62,2.79h.35a3.47,3.47,0,0,0-1.78.4,18.67,18.67,0,0,1-2.71.6h-.22c0-.26,0-.2,0-.16l.57.34a9.11,9.11,0,0,0,1.81.72A9.62,9.62,0,0,0,59.56,19a9.83,9.83,0,0,0,2.6-7.17c0-.1.12-.16.19-.22a6.4,6.4,0,0,0,1.28-1.32.44.44,0,0,0,.08-.25h0S63.76,10.08,63.69,10.11Z"/><circle class="cls-2" cx="95.83" cy="16.24" r="14.62"/><path class="cls-3" d="M100.37,10.71a1,1,0,1,0,1,1A1,1,0,0,0,100.37,10.71Z"/><path class="cls-3" d="M95.9,12a4.22,4.22,0,1,0,4.23,4.22A4.22,4.22,0,0,0,95.9,12Zm0,6.92a2.7,2.7,0,1,1,2.71-2.7,2.7,2.7,0,0,1-2.71,2.7Z"/><path class="cls-3" d="M99.11,24.81H92.32a5.12,5.12,0,0,1-5.11-5.11V12.92a5.13,5.13,0,0,1,5.11-5.11h6.79a5.12,5.12,0,0,1,5.1,5.11V19.7A5.12,5.12,0,0,1,99.11,24.81Zm-6.35-16a3.57,3.57,0,0,0-3.55,3.56v6.88a3.57,3.57,0,0,0,3.55,3.56h6.9a3.57,3.57,0,0,0,3.55-3.56V12.37a3.57,3.57,0,0,0-3.55-3.56Z"/></g></g></svg>