<svg xmlns="http://www.w3.org/2000/svg" viewBox="0 0 512 512"><defs><style>.cls-1{fill:#fff;}</style></defs><g id="Capa_2" data-name="Capa 2"><g id="Capa_1-2" data-name="Capa 1"><path class="cls-1" d="M345.85,287.51c-12.55-7.43-34.47-25.59-54.89-6.15-4.82,4.91-8,8.19-10.08,10.3-18.55-8.79-51.54-40.64-60.1-60.75,30.31-27.55,16.28-37.38-13.53-94-5.09-8.79-13.35-14.62-23.43-14.62-12.34,0-17.17,6.08-34.8,23.92-22.08,22.34-35,29.36-26.73,67.2,23.63,107.74,181.35,215.64,226,167.4,36.48-36.23,43.52-39.67,41.38-56.05C387,308.44,374.47,304.44,345.85,287.51ZM326.32,360.4c-2.55,2.83-17.83,3.76-43.16-6.75-48.05-19.94-97.88-72.26-118.3-111.32C158.35,229.89,144,193,152,185.8c3.27-3.09,25.23-25.51,30.84-31,15,28.35,22.24,41.6,24.66,47-4.31,6.64-18.06,11.84-18.06,28.13,6.05,31.83,47.45,70.83,72.2,85.34,25.26,14.81,33.34,4.91,42.54-4.52,8.21-8.41,7.51-7.9,8.37-8l45.18,26.56C352.38,334.89,330,356.55,326.32,360.4Z"/><path class="cls-1" d="M256,0C114.5,0,0,114.52,0,256S114.52,512,256,512,512,397.48,512,256,397.48,0,256,0Zm0,482A226,226,0,1,1,482,256,225.88,225.88,0,0,1,256,482Z"/></g></g></svg>