<?xml version="1.0" encoding="utf-8"?>
<!-- Generator: Adobe Illustrator 25.1.0, SVG Export Plug-In . SVG Version: 6.00 Build 0)  -->
<svg version="1.1" id="Capa_1" xmlns="http://www.w3.org/2000/svg" xmlns:xlink="http://www.w3.org/1999/xlink" x="0px" y="0px"
	 viewBox="0 0 512 512" style="enable-background:new 0 0 512 512;" xml:space="preserve">
<style type="text/css">
	.st0{fill:#FFFFFF;stroke:#1D1D1B;stroke-miterlimit:10;}
	.st1{fill:#FFFFFF;stroke:#000000;stroke-miterlimit:10;}
</style>
<g>
	<g>
		<path class="st0" d="M256,0C167.8,0,96,71.8,96,160c0,85.1,145.3,275.8,151.5,283.8c2,2.6,5.1,4.2,8.5,4.2s6.4-1.5,8.5-4.2
			C270.7,435.8,416,245.1,416,160C416,71.8,344.2,0,256,0z M256,234.7c-41.2,0-74.7-33.5-74.7-74.7s33.5-74.7,74.7-74.7
			s74.7,33.5,74.7,74.7S297.2,234.7,256,234.7z"/>
	</g>
</g>
<g>
	<g>
		<path class="st1" d="M499.5,495.4l-85.3-128c-2-3-5.3-4.8-8.9-4.8h-57.7c-30.9,47.6-59.5,85.4-66.2,94.1
			c-6,7.8-15.5,12.5-25.4,12.5s-19.4-4.7-25.4-12.6c-6.7-8.7-35.3-46.6-66.2-94.1h-57.7c-3.6,0-6.9,1.8-8.9,4.8l-85.3,128
			c-2.2,3.3-2.4,7.5-0.5,11c1.9,3.4,5.5,5.6,9.4,5.6h469.3c3.9,0,7.6-2.2,9.4-5.6C501.9,502.9,501.7,498.7,499.5,495.4z"/>
	</g>
</g>
</svg>
